<svg id="Layer_1" data-name="Layer 1" xmlns="http://www.w3.org/2000/svg" viewBox="0 0 772.15 577.34"><defs><style>.cls-1{fill:#fff;}.cls-1,.cls-3,.cls-5{stroke:#fff;stroke-width:18.34px;}.cls-1,.cls-5{stroke-linejoin:round;}.cls-2,.cls-5{fill:#3f9ca4;}.cls-3,.cls-4{fill:#8dc63f;}.cls-3{stroke-miterlimit:10;}</style></defs><title>LOGO CON OUTLINE BLANCO</title><path class="cls-1" d="M89.68,27V240.22h86.88v57.67H19.11V27Z" transform="translate(-9.94 -17.83)"/><path class="cls-1" d="M262.68,27V297.89H192.12V27Z" transform="translate(-9.94 -17.83)"/><path class="cls-1" d="M346.52,27,375,231.11h.76L404.19,27h75.12L420.89,297.89H329.83L272.54,27Z" transform="translate(-9.94 -17.83)"/><path class="cls-1" d="M651.17,27V84.67H561.26V131h84.22v55.4H561.26v53.87h93.33v57.67H490.69V27Z" transform="translate(-9.94 -17.83)"/><path class="cls-2" d="M89.68,27V240.22h86.88v57.67H19.11V27Z" transform="translate(-9.94 -17.83)"/><path class="cls-2" d="M262.68,27V297.89H192.12V27Z" transform="translate(-9.94 -17.83)"/><path class="cls-2" d="M346.52,27,375,231.11h.76L404.19,27h75.12L420.89,297.89H329.83L272.54,27Z" transform="translate(-9.94 -17.83)"/><path class="cls-2" d="M651.17,27V84.67H561.26V131h84.22v55.4H561.26v53.87h93.33v57.67H490.69V27Z" transform="translate(-9.94 -17.83)"/><path class="cls-3" d="M308.49,259.32c12.17,4.51,20.82,9.38,24.23,12.38a22.59,22.59,0,0,1,4.8,6c1.23,1.82,1.7,3.14,1.43,4a71.74,71.74,0,0,0-5.83,10.46q-3.57,7.41-7.66,17.87T317,333.44q-4.39,13-8.48,27t-7.56,28.44q-3.48,14.42-5.72,28a246.64,246.64,0,0,0-3,25.49,98.78,98.78,0,0,0,.71,21,36.82,36.82,0,0,0,3.17,10.77,10.91,10.91,0,0,0,6,5.68,36.87,36.87,0,0,0,5.62,1.53,31.78,31.78,0,0,0,5.63.5,32.75,32.75,0,0,0,7.25-.81,65,65,0,0,0,7-2,4.28,4.28,0,0,1,3,.75,3.82,3.82,0,0,1,1.19,1.79,11,11,0,0,1-.15,8c-1.53,3.16-4.59,4.36-8.89,6.05a35.67,35.67,0,0,1-9.47,2.25q-3.27.41-6.64.61t-7.46.2a67.38,67.38,0,0,1-7.36-.41,44.28,44.28,0,0,1-7.76-1.62,33.52,33.52,0,0,1-15.67-7.91,29.74,29.74,0,0,1-4.67-5.39q-7.05-10.26-9.5-25.69a132.8,132.8,0,0,1-1.43-22.85,231.53,231.53,0,0,1,1.94-25.9q1.74-13.39,4.7-27.62t6.64-28c4.66-17.51,10.62-23.85,7.67-26.91-2.77-2.86-10.56-.54-15.33,2.64C254.1,332,253.31,335.73,248,343q-5.76,7.85-11.26,15.88-10.42,15.24-19.42,30.57T201.4,418.74q-2.86,12-5.31,23.36t-4.29,20.81Q190,472.36,189,479.26a44.2,44.2,0,0,0-.51,10.16c-.27.94-1.19,1.18-2.76.71a29.72,29.72,0,0,1-5.62-2.54c-2.18-1.22-14.34-4.68-16.85-6.51s-4.88-3.69-7.06-5.59a50.92,50.92,0,0,1-5.41-5.38q-2.15-2.53-2.15-4a197.7,197.7,0,0,1,3.17-21.63q2.55-13.29,6.23-29.24t8.08-33.41q4.4-17.46,8.48-34.12,3.27-12.79,6.23-24.37T186.29,303c1.53-5.53,1.56-9.41,4.39-14.22,1.7-2.89,3.71-5.19,3.17-5.78s-4,1.33-6.34,3c-4.36,3.23-6.51,6.92-8.58,9.65q-4.71,6.19-9.91,14.42T158.8,327.34q-5,9-9.5,18.28t-8,17.36a139.09,139.09,0,0,0-5.42,14.63c-1.3,4.33-2,7.05-2,9.35l-.41,2c-.27.55-1.12.38-2.55-.5a26.77,26.77,0,0,1-4.91-4.17c-1.84-1.89-3.64-3.47-5.62-5.9A82,82,0,0,1,115,370.9a51.46,51.46,0,0,1-3.88-7.21,8.66,8.66,0,0,1-.81-5.58,72.94,72.94,0,0,1,3.06-8.63c2-4.74,4.19-8.06,7.87-14.12q4.8-7.92,11.14-17t13.48-17.87q7.16-8.83,14.62-16.65a143.83,143.83,0,0,1,14.5-13.41,51.8,51.8,0,0,1,13.49-8c4.29-1.62,17.88.12,21.15,1.33.77.56,1.75,1.31,2.86,2.24a51.9,51.9,0,0,1,5.11,5,46.71,46.71,0,0,1,4.9,6.6,20.7,20.7,0,0,1,2.86,6.91,54.88,54.88,0,0,1,.62,12.9,155.21,155.21,0,0,1-1.84,16.14q-1.44,8.73-3.48,18.69t-4.49,20.51l-.41,1.42c5.58-9.61,16.62-31.66,22.89-41.07a328.2,328.2,0,0,1,20-27,258,258,0,0,1,22.27-23.86,14.2,14.2,0,0,1,5.49-3.49,24,24,0,0,1,9.18-1.06A69.79,69.79,0,0,1,308.49,259.32Z" transform="translate(-9.94 -17.83)"/><path class="cls-3" d="M708.82,499.36H689.91c-4.61,0-8.35-4.1-8.35-9.16l5.12-18.86c0-5.06,3.74-9.16,8.35-9.16l19,2a11.37,11.37,0,0,1,6.54,3.48,7,7,0,0,1,1.43,5.59q-1.62,9-3.25,17.9a10.37,10.37,0,0,1-3.36,6.27C713,499.54,709.78,499.23,708.82,499.36Z" transform="translate(-9.94 -17.83)"/><path class="cls-3" d="M410.13,323.51a38.47,38.47,0,0,1,21.61,11.32,63.06,63.06,0,0,1,13.15,20.32q8.16,7.85,13,22.94c.4,1.55.75,3.09,1.06,4.64s.65,3.39,1.05,5.52a97.45,97.45,0,0,1,.91,25.4,114.78,114.78,0,0,1-5.14,25,123.88,123.88,0,0,1-10.13,22.94,84.86,84.86,0,0,1-14.35,18.87,67.08,67.08,0,0,1-17.84,12.63,47,47,0,0,1-20.56,4.64q-19.65-.29-36.57-12.63t-26-37.59A77.47,77.47,0,0,1,326.69,433a84.28,84.28,0,0,1-.3-25.69,108.78,108.78,0,0,1,6.8-25.69A112.47,112.47,0,0,1,346,358.05a94.11,94.11,0,0,1,17.83-19,75.44,75.44,0,0,1,21.62-12.19A59.82,59.82,0,0,1,410.13,323.51ZM415,400.15a8.17,8.17,0,0,1-4.53-4.07,42.72,42.72,0,0,1-3.18-7.11,52.94,52.94,0,0,1-2.11-8.27q-.76-4.35-1.06-7.55a14.7,14.7,0,0,1,1.36-7.4,28.82,28.82,0,0,1,3.93-6.39,31.69,31.69,0,0,1,4.84-4.79,35.86,35.86,0,0,1,4.08-2.9,11.86,11.86,0,0,0-4.54-.58q-6.35.59-13.6,5.08a56,56,0,0,0-13,11.17,88.21,88.21,0,0,0-9.52,16.12,97.41,97.41,0,0,0-6.35,18.43,114.11,114.11,0,0,0-2.87,19,70.16,70.16,0,0,0,.91,17.56q1.5,11,7.1,18.43t15.87,8q10.88.58,19.95-8.13A71.51,71.51,0,0,0,427.36,435a107.73,107.73,0,0,0,8.46-28.16,83.12,83.12,0,0,0,.3-27.29v-1.45a7.87,7.87,0,0,0-4.83,1.88,28,28,0,0,0-4.54,4.5,22.39,22.39,0,0,0-3.32,5.52,13.74,13.74,0,0,0-1.21,5.22Z" transform="translate(-9.94 -17.83)"/><path class="cls-3" d="M573.55,325.54q3.63-2,10.73.58a49.37,49.37,0,0,1,13.91,8.13,60.77,60.77,0,0,1,11.64,12.48q4.83,7,3.93,13.65-.62,3.19-2.42,10.16t-4.23,16q-3,11.63-6.51,25.41t-6.8,25.83q-3.33,12.06-5.74,20.33t-3.32,9.14q4.83-.87,12.84-10a211.56,211.56,0,0,0,16.93-22.64q8.91-13.5,18.14-29.61T649,373.73q7.11-15.09,11.49-27.43t3.78-18.44q1.51-2.89,5.89.44a48.34,48.34,0,0,1,8.77,9,61.48,61.48,0,0,1,7.26,11.9q2.87,6.24,1.66,9.44-4.85,9.87-12.09,24.24t-16.18,30.19q-8.91,15.82-19.19,31.35a242.06,242.06,0,0,1-21.47,28,116.71,116.71,0,0,1-23,20.17q-11.79,7.69-23.58,7.4a23.19,23.19,0,0,1-16.78-7q-7.09-7-9.52-20.32a5.92,5.92,0,0,1-.3-2.33,101.5,101.5,0,0,1-9.67,12.49,54.12,54.12,0,0,1-5.45,5.08,48,48,0,0,1-7.55,5.08A52.09,52.09,0,0,1,513.7,497a37.73,37.73,0,0,1-11.19,1.59q-13.31-.58-21.16-10.74t-10.28-24.67a68.88,68.88,0,0,1-.91-7c-.19-2.51-.3-4.84-.3-7a313.26,313.26,0,0,1,3.48-31.79q2.88-18.72,6.2-37,2.41-14.81,4.68-28.31t2.87-22.5l2.42-4.06q3.63-2,10.73.58a49.23,49.23,0,0,1,13.91,8.13,60.77,60.77,0,0,1,11.64,12.48q4.83,7,3.93,13.65c-.41,1.74-1,4.35-1.82,7.84s-1.91,7.45-3.32,11.9c-1.69,5.81-3.67,12.9-5.75,21.05-3.23,12.68-5,21.32-5.44,23.36q-2.42,11.63-3.62,21.92t-.31,16.41c0,1.55-.1,2.32-.3,2.32h2.72Q519.44,462,526.09,454a118.51,118.51,0,0,0,12.39-18.29,238,238,0,0,0,10.58-21.48q4.85-11.18,8.47-20.76h-.3a17.88,17.88,0,0,1,1.66-3.77,18.3,18.3,0,0,0,1.66-3.78l.61-.58q3.62-16.54,6.34-31.35t3.63-24.39Z" transform="translate(-9.94 -17.83)"/><path class="cls-3" d="M692.73,450.32a5.41,5.41,0,0,1-.26-2.79c33-114.14,42.81-156.32,41.23-162.19-.16-.58-1.45-4.65.47-6.66.83-.87,2.57-1.68,7.83-.49a42.74,42.74,0,0,1,16.8,8.18A35.09,35.09,0,0,1,771,302.75a33.28,33.28,0,0,1,1.84,9.89q-23.49,68.75-47,137.48a7.15,7.15,0,0,1-1.3,2.84c-.66.85-3.08,3.54-15.27,2.66C701.68,455.07,694.37,454.54,692.73,450.32Z" transform="translate(-9.94 -17.83)"/><path class="cls-4" d="M706.22,499.36H687.31c-4.61,0-8.35-4.1-8.35-9.16l5.12-18.86c0-5.06,3.74-9.16,8.35-9.16l19,2a11.37,11.37,0,0,1,6.54,3.48,7,7,0,0,1,1.43,5.59q-1.62,9-3.25,17.9a10.37,10.37,0,0,1-3.36,6.27C710.43,499.54,707.18,499.23,706.22,499.36Z" transform="translate(-9.94 -17.83)"/><path class="cls-4" d="M308.52,259.32c12.16,4.54,20.8,9.43,24.2,12.46a22.25,22.25,0,0,1,4.8,6c1.23,1.84,1.7,3.16,1.43,4a71.86,71.86,0,0,0-5.82,10.52q-3.57,7.45-7.65,18T317,333.84q-4.39,13.07-8.47,27.15T301,389.58q-3.48,14.49-5.72,28.17a248.93,248.93,0,0,0-3,25.62A99.81,99.81,0,0,0,293,464.5a37.09,37.09,0,0,0,3.17,10.82,11,11,0,0,0,6,5.72,36.56,36.56,0,0,0,5.62,1.53,30.65,30.65,0,0,0,5.61.51,32.18,32.18,0,0,0,7.25-.82,62.14,62.14,0,0,0,7-2,4.23,4.23,0,0,1,3,.76,3.85,3.85,0,0,1,1.19,1.79,11.18,11.18,0,0,1-.15,8.09c-1.54,3.18-4.58,4.39-8.89,6.08a34.55,34.55,0,0,1-9.45,2.27q-3.27.41-6.64.61t-7.45.2a67,67,0,0,1-7.35-.4,44.41,44.41,0,0,1-7.76-1.64l.21.21q-13.49-3.27-20.52-13.58t-9.5-25.82a134.22,134.22,0,0,1-1.42-23,231.41,231.41,0,0,1,1.94-26q1.72-13.49,4.69-27.77t6.64-28.17q3.67-13.87,7.65-27.05T282,302q-12.06,12.87-23.38,27.46t-21.74,29.91q-10.41,15.31-19.4,30.73t-15.92,29.5q-2.86,12-5.31,23.48T191.94,464q-1.83,9.5-2.75,16.44a43.41,43.41,0,0,0-.51,10.2q-.42,1.42-2.76.72a29.52,29.52,0,0,1-5.61-2.55c-2.18-1.23-14.33-4.71-16.84-6.55s-4.87-3.71-7.05-5.61a51.91,51.91,0,0,1-5.41-5.41c-1.42-1.71-2.14-3-2.14-4A197.43,197.43,0,0,1,152,445.5q2.55-13.37,6.22-29.39t8.07-33.59q4.38-17.55,8.47-34.3,3.25-12.86,6.23-24.49t5.41-20.52q2.44-8.88,4.38-14.29c1.3-3.61,2.35-5.55,3.17-5.82-1.63-.27-3.75.75-6.33,3.06a68.66,68.66,0,0,0-8.57,9.7q-4.71,6.22-9.91,14.49T159,327.71q-5,9.07-9.5,18.37t-8,17.46a140.23,140.23,0,0,0-5.41,14.69c-1.29,4.36-2,7.1-2,9.41l-.41,2q-.41.82-2.55-.51a26.87,26.87,0,0,1-4.9-4.18c-1.83-1.91-3.64-3.49-5.61-5.94a81.86,81.86,0,0,1-5.42-7.55,51.11,51.11,0,0,1-3.87-7.25,8.77,8.77,0,0,1-.82-5.61l-.41.4q.42-2.85,3.47-9.08t7.86-14.19q4.8-8,11.13-17t13.47-18q7.16-8.88,14.6-16.74a144.89,144.89,0,0,1,14.49-13.48,51.43,51.43,0,0,1,13.48-8.06c4.29-1.63,17.86.11,21.12,1.34h-.4a12,12,0,0,1,3.26,2.24,49.29,49.29,0,0,1,5.11,5,46.56,46.56,0,0,1,4.9,6.64,20.8,20.8,0,0,1,2.85,6.94,55.43,55.43,0,0,1,.62,13,156.77,156.77,0,0,1-1.84,16.23q-1.42,8.79-3.47,18.79t-4.49,20.62l-.41,1.43c5.58-9.67,16.61-31.83,22.87-41.29a330.91,330.91,0,0,1,20-27.15,258.24,258.24,0,0,1,22.25-24,14.17,14.17,0,0,1,5.48-3.5,23.74,23.74,0,0,1,9.18-1.07A69.61,69.61,0,0,1,308.52,259.32Z" transform="translate(-9.94 -17.83)"/><path class="cls-4" d="M407.52,323.51a38.46,38.46,0,0,1,21.62,11.32,63.23,63.23,0,0,1,13.15,20.32q8.16,7.85,13,22.94c.4,1.55.75,3.09,1,4.64s.66,3.39,1.06,5.52a97.45,97.45,0,0,1,.91,25.4,114.78,114.78,0,0,1-5.14,25A123.88,123.88,0,0,1,443,461.55a84.9,84.9,0,0,1-14.36,18.87,66.87,66.87,0,0,1-17.83,12.63,47,47,0,0,1-20.56,4.64q-19.65-.29-36.58-12.63t-26-37.59A77.47,77.47,0,0,1,324.09,433a84.28,84.28,0,0,1-.3-25.69,108.78,108.78,0,0,1,6.8-25.69,111.56,111.56,0,0,1,12.85-23.52,93.83,93.83,0,0,1,17.83-19,75.44,75.44,0,0,1,21.62-12.19A59.79,59.79,0,0,1,407.52,323.51Zm4.84,76.64a8.17,8.17,0,0,1-4.53-4.07,42.72,42.72,0,0,1-3.18-7.11,51.85,51.85,0,0,1-2.11-8.27q-.77-4.35-1.06-7.55a14.6,14.6,0,0,1,1.36-7.4,28.82,28.82,0,0,1,3.93-6.39,32.1,32.1,0,0,1,4.83-4.79,36.78,36.78,0,0,1,4.08-2.9,11.76,11.76,0,0,0-4.53-.58q-6.34.59-13.6,5.08a55.82,55.82,0,0,0-13,11.17A88.21,88.21,0,0,0,375,383.46a97.41,97.41,0,0,0-6.35,18.43,114.11,114.11,0,0,0-2.87,19,70.65,70.65,0,0,0,.9,17.56q1.52,11,7.11,18.43t15.87,8q10.88.58,19.95-8.13A71.49,71.49,0,0,0,424.75,435a107.37,107.37,0,0,0,8.47-28.16,83.12,83.12,0,0,0,.3-27.29v-1.45a7.9,7.9,0,0,0-4.84,1.88,28.3,28.3,0,0,0-4.53,4.5,22.75,22.75,0,0,0-3.33,5.52,13.9,13.9,0,0,0-1.2,5.22Z" transform="translate(-9.94 -17.83)"/><path class="cls-4" d="M571,325.54q3.63-2,10.73.58a49.37,49.37,0,0,1,13.91,8.13,60.44,60.44,0,0,1,11.63,12.48q4.85,7,3.93,13.65-.6,3.19-2.41,10.16t-4.24,16q-3,11.63-6.5,25.41t-6.8,25.83q-3.33,12.06-5.74,20.33c-1.62,5.51-2.72,8.56-3.33,9.14q4.83-.87,12.85-10a211.56,211.56,0,0,0,16.93-22.64q8.91-13.5,18.14-29.61t16.32-31.21q7.1-15.09,11.49-27.43t3.78-18.44q1.5-2.89,5.89.44a48.34,48.34,0,0,1,8.77,9,61.48,61.48,0,0,1,7.26,11.9q2.87,6.24,1.66,9.44-4.85,9.87-12.09,24.24T657,413.07Q648,428.9,637.76,444.42a242.06,242.06,0,0,1-21.47,28,116.71,116.71,0,0,1-23,20.17q-11.79,7.69-23.58,7.4a23.19,23.19,0,0,1-16.78-7q-7.11-7-9.52-20.32a5.92,5.92,0,0,1-.3-2.33,100.55,100.55,0,0,1-9.68,12.49A53.9,53.9,0,0,1,528,488a48.5,48.5,0,0,1-7.55,5.08,51.89,51.89,0,0,1-9.38,3.92,37.67,37.67,0,0,1-11.18,1.59q-13.31-.58-21.16-10.74t-10.28-24.67a68.88,68.88,0,0,1-.91-7c-.19-2.51-.3-4.84-.3-7a313.26,313.26,0,0,1,3.48-31.79q2.86-18.72,6.2-37,2.4-14.81,4.68-28.31t2.87-22.5l2.42-4.06q3.63-2,10.73.58a49.23,49.23,0,0,1,13.91,8.13,60.77,60.77,0,0,1,11.64,12.48q4.83,7,3.93,13.65-.61,2.61-1.82,7.84T522,380.12v-.29q-2.73,9.57-5.75,21.34t-5.44,23.36q-2.42,11.63-3.63,21.92t-.3,16.41c0,1.55-.1,2.32-.3,2.32h2.72Q516.84,462,523.49,454a119.22,119.22,0,0,0,12.39-18.29,238,238,0,0,0,10.58-21.48q4.85-11.18,8.47-20.76h-.3a17.88,17.88,0,0,1,1.66-3.77,18.3,18.3,0,0,0,1.66-3.78l.61-.58q3.62-16.54,6.34-31.35t3.63-24.39Z" transform="translate(-9.94 -17.83)"/><path class="cls-4" d="M690.12,450.32a5.39,5.39,0,0,1-.25-2.79c33-114.14,42.81-156.32,41.23-162.19-.16-.58-1.46-4.65.46-6.66.84-.87,2.58-1.68,7.83-.49a42.7,42.7,0,0,1,16.81,8.18,35.09,35.09,0,0,1,12.24,16.38,33.28,33.28,0,0,1,1.84,9.89q-23.49,68.75-47,137.48A7.19,7.19,0,0,1,722,453c-.66.85-3.07,3.54-15.26,2.66C699.08,455.07,691.76,454.54,690.12,450.32Z" transform="translate(-9.94 -17.83)"/><path class="cls-5" d="M286.24,514.93a23.32,23.32,0,0,1,9,1.72,19.31,19.31,0,0,1,7.22,5.16,24.49,24.49,0,0,1,4.77,8.6A38.6,38.6,0,0,1,309,542.53a42.52,42.52,0,0,1-1.41,11.25,25.54,25.54,0,0,1-4.24,8.92,20.15,20.15,0,0,1-7.08,5.9,21.7,21.7,0,0,1-10,2.15H264.66V514.93Zm-.77,45.5a12.71,12.71,0,0,0,4.63-.86,10.07,10.07,0,0,0,4-2.85,14.83,14.83,0,0,0,2.8-5.2A25.34,25.34,0,0,0,298,543.7a36.34,36.34,0,0,0-.73-7.63,16.31,16.31,0,0,0-2.42-5.82,11,11,0,0,0-4.45-3.71,16.18,16.18,0,0,0-6.84-1.29h-7.85v35.18Z" transform="translate(-9.94 -17.83)"/><path class="cls-5" d="M315.82,524.08v-9.15h9.95v9.15Zm9.95,6.25v40.42h-9.95V530.33Z" transform="translate(-9.94 -17.83)"/><path class="cls-5" d="M367.86,573.72a14.38,14.38,0,0,1-2.55,5.83,15.76,15.76,0,0,1-5.69,4.58,22.36,22.36,0,0,1-9.95,1.87,21.17,21.17,0,0,1-5.43-.74,16.48,16.48,0,0,1-5.05-2.31,12.92,12.92,0,0,1-3.78-4,12.66,12.66,0,0,1-1.72-5.9h9.89a6.3,6.3,0,0,0,2.73,4.34,9,9,0,0,0,4.69,1.21c2.81,0,4.85-.94,6.14-2.81a12,12,0,0,0,1.86-7.12v-5.32h-.15a10.34,10.34,0,0,1-4.59,4.74,13.65,13.65,0,0,1-6.27,1.52,14.43,14.43,0,0,1-7-1.6,13.72,13.72,0,0,1-4.83-4.38,19.37,19.37,0,0,1-2.78-6.49,34.36,34.36,0,0,1-.87-7.86,27.78,27.78,0,0,1,1-7.54,20,20,0,0,1,3-6.41,14.71,14.71,0,0,1,4.87-4.42,13.4,13.4,0,0,1,6.69-1.64,12.77,12.77,0,0,1,6.27,1.48,11.45,11.45,0,0,1,4.52,5H359v-5.4h9.46v37.84A29.85,29.85,0,0,1,367.86,573.72Zm-13.63-13.44a8.15,8.15,0,0,0,2.66-2.5,11.85,11.85,0,0,0,1.58-3.56A16.36,16.36,0,0,0,359,550a26.51,26.51,0,0,0-.42-4.73,12.52,12.52,0,0,0-1.41-3.94,7.66,7.66,0,0,0-2.59-2.74,7.47,7.47,0,0,0-4.07-1,6.64,6.64,0,0,0-3.6.94,8.07,8.07,0,0,0-2.53,2.54,11.18,11.18,0,0,0-1.47,3.68,20.31,20.31,0,0,0-.45,4.33,24.23,24.23,0,0,0,.38,4.34,12.7,12.7,0,0,0,1.33,3.88,8.33,8.33,0,0,0,2.49,2.81,6.48,6.48,0,0,0,3.85,1.09A7.31,7.31,0,0,0,354.23,560.28Z" transform="translate(-9.94 -17.83)"/><path class="cls-5" d="M376.73,524.08v-9.15h9.95v9.15Zm9.95,6.25v40.42h-9.95V530.33Z" transform="translate(-9.94 -17.83)"/><path class="cls-5" d="M414.44,530.33v7.43h-7.29v20q0,2.81.84,3.75c.56.62,1.68.94,3.36.94.57,0,1.1,0,1.62-.08a11.27,11.27,0,0,0,1.47-.24v8.6a20.47,20.47,0,0,1-2.8.31c-1,.05-2,.08-3,.08a25.57,25.57,0,0,1-4.38-.35,9.59,9.59,0,0,1-3.65-1.37,6.86,6.86,0,0,1-2.48-2.89,11.29,11.29,0,0,1-.92-4.93V537.76h-6v-7.43h6V518.21h10v12.12Z" transform="translate(-9.94 -17.83)"/><path class="cls-5" d="M418.78,542.76a14,14,0,0,1,1.75-6.49,12.68,12.68,0,0,1,3.93-4.14,15.8,15.8,0,0,1,5.36-2.23,27.62,27.62,0,0,1,6-.66,36,36,0,0,1,5.54.43,15.3,15.3,0,0,1,5.11,1.68,10.29,10.29,0,0,1,3.79,3.48,10.54,10.54,0,0,1,1.47,5.9v21A48.76,48.76,0,0,0,452,567a10.22,10.22,0,0,0,1,3.75h-10.1a17.12,17.12,0,0,1-.45-1.91,18.84,18.84,0,0,1-.25-2,12.71,12.71,0,0,1-5.61,3.83,20,20,0,0,1-6.58,1.1,15.69,15.69,0,0,1-4.84-.71,10.65,10.65,0,0,1-3.93-2.18,10.32,10.32,0,0,1-2.63-3.75,14.25,14.25,0,0,1-.94-5.4,12.82,12.82,0,0,1,1.09-5.67,9.87,9.87,0,0,1,2.8-3.56,11.94,11.94,0,0,1,3.93-2,40.34,40.34,0,0,1,4.44-1.06c1.5-.25,3-.47,4.42-.62a24.66,24.66,0,0,0,3.85-.7,6.59,6.59,0,0,0,2.67-1.37,3.21,3.21,0,0,0,.91-2.63,6.5,6.5,0,0,0-.53-2.85,4.18,4.18,0,0,0-1.4-1.64,5.13,5.13,0,0,0-2-.78,15,15,0,0,0-2.49-.19,7,7,0,0,0-4.63,1.4q-1.68,1.41-2,4.69Zm23,8.21a4.28,4.28,0,0,1-1.58,1,14.23,14.23,0,0,1-2,.59q-1.08.23-2.28.39c-.79.1-1.59.23-2.38.39a16.84,16.84,0,0,0-2.21.62A6.21,6.21,0,0,0,429.4,555a4.86,4.86,0,0,0-1.3,1.68,6.06,6.06,0,0,0-.49,2.58,5.83,5.83,0,0,0,.49,2.5,4.24,4.24,0,0,0,1.33,1.61,5.26,5.26,0,0,0,2,.81,10.9,10.9,0,0,0,2.31.24,8,8,0,0,0,4.55-1.1,6.89,6.89,0,0,0,2.39-2.61,9,9,0,0,0,.94-3.09,23,23,0,0,0,.18-2.5Z" transform="translate(-9.94 -17.83)"/><path class="cls-5" d="M469.66,514.93v55.82h-10V514.93Z" transform="translate(-9.94 -17.83)"/><path class="cls-5" d="M530.15,529.82a11.85,11.85,0,0,0-2.45-3.08,11.06,11.06,0,0,0-3.33-2.08,10.51,10.51,0,0,0-3.89-.74,11.7,11.7,0,0,0-6.3,1.6,12.47,12.47,0,0,0-4.21,4.3,20,20,0,0,0-2.35,6.14,34,34,0,0,0-.74,7.12,31.64,31.64,0,0,0,.74,6.84,19.5,19.5,0,0,0,2.35,6,12.53,12.53,0,0,0,4.21,4.26,11.7,11.7,0,0,0,6.3,1.6,9.66,9.66,0,0,0,7.88-3.44,16.77,16.77,0,0,0,3.47-9.07h10.66a31.25,31.25,0,0,1-2.17,9.46,22.71,22.71,0,0,1-4.63,7.19,19.44,19.44,0,0,1-6.73,4.54,22.23,22.23,0,0,1-8.48,1.57,23.32,23.32,0,0,1-10.34-2.24,22.21,22.21,0,0,1-7.74-6.13,28.08,28.08,0,0,1-4.84-9.19,37.3,37.3,0,0,1-1.68-11.37,38.67,38.67,0,0,1,1.68-11.62,29,29,0,0,1,4.84-9.34,22.45,22.45,0,0,1,7.74-6.26,24.29,24.29,0,0,1,18.16-.93,20.09,20.09,0,0,1,11.38,10.17,24,24,0,0,1,2.38,8.59H531.41A10.56,10.56,0,0,0,530.15,529.82Z" transform="translate(-9.94 -17.83)"/><path class="cls-5" d="M549.22,524.08v-9.15h9.95v9.15Zm9.95,6.25v40.42h-9.95V530.33Z" transform="translate(-9.94 -17.83)"/><path class="cls-5" d="M586.92,530.33v7.43h-7.28v20c0,1.87.27,3.12.84,3.75s1.67.94,3.35.94c.57,0,1.1,0,1.62-.08a11,11,0,0,0,1.47-.24v8.6a20.29,20.29,0,0,1-2.8.31c-1,.05-2,.08-3,.08a25.37,25.37,0,0,1-4.37-.35,9.46,9.46,0,0,1-3.65-1.37,6.81,6.81,0,0,1-2.49-2.89,11.3,11.3,0,0,1-.91-4.93V537.76h-6v-7.43h6V518.21h10v12.12Z" transform="translate(-9.94 -17.83)"/><path class="cls-5" d="M592,524.08v-9.15h9.95v9.15Zm9.95,6.25v40.42H592V530.33Z" transform="translate(-9.94 -17.83)"/><path class="cls-5" d="M626.38,538.7H608.93v-8.37h30.55v8.37l-18.85,23.69h20.19v8.36h-33.3v-8.36Z" transform="translate(-9.94 -17.83)"/><path class="cls-5" d="M656.8,561.06a8.37,8.37,0,0,0,6.45,2.42,8.24,8.24,0,0,0,5.19-1.68,7,7,0,0,0,2.66-3.55h8.76q-2.1,7.26-6.45,10.39a17.46,17.46,0,0,1-10.51,3.13,18.75,18.75,0,0,1-7.71-1.53,15.84,15.84,0,0,1-5.82-4.34,20,20,0,0,1-3.68-6.72,27.27,27.27,0,0,1-1.29-8.6,26,26,0,0,1,1.33-8.45,20.2,20.2,0,0,1,3.78-6.75,17.93,17.93,0,0,1,5.86-4.5,17.11,17.11,0,0,1,7.53-1.64,15.77,15.77,0,0,1,8.06,2,16.73,16.73,0,0,1,5.65,5.36,23.38,23.38,0,0,1,3.18,7.65,31.49,31.49,0,0,1,.7,9H654.35C654.49,556.83,655.3,559.44,656.8,561.06Zm11.25-21.27a6.59,6.59,0,0,0-5.43-2.19,7.49,7.49,0,0,0-6.48,3.13,8.39,8.39,0,0,0-1.34,2.82,14.78,14.78,0,0,0-.45,2.66h16.19A13.55,13.55,0,0,0,668.05,539.79Z" transform="translate(-9.94 -17.83)"/><path class="cls-5" d="M695.84,530.33V536h.21a12.11,12.11,0,0,1,4.91-5.12,13,13,0,0,1,6.17-1.6,15.33,15.33,0,0,1,6.55,1.21,9.88,9.88,0,0,1,4,3.36,13.9,13.9,0,0,1,2.07,5.24,36.86,36.86,0,0,1,.59,6.84v24.86h-10V547.92q0-5-1.41-7.46c-.93-1.65-2.58-2.47-5-2.47q-4.06,0-5.88,2.7t-1.83,8.87v21.19h-10V530.33Z" transform="translate(-9.94 -17.83)"/><path class="cls-2" d="M286.24,514.93a23.32,23.32,0,0,1,9,1.72,19.31,19.31,0,0,1,7.22,5.16,24.49,24.49,0,0,1,4.77,8.6A38.6,38.6,0,0,1,309,542.53a42.52,42.52,0,0,1-1.41,11.25,25.54,25.54,0,0,1-4.24,8.92,20.15,20.15,0,0,1-7.08,5.9,21.7,21.7,0,0,1-10,2.15H264.66V514.93Zm-.77,45.5a12.71,12.71,0,0,0,4.63-.86,10.07,10.07,0,0,0,4-2.85,14.83,14.83,0,0,0,2.8-5.2A25.34,25.34,0,0,0,298,543.7a36.34,36.34,0,0,0-.73-7.63,16.31,16.31,0,0,0-2.42-5.82,11,11,0,0,0-4.45-3.71,16.18,16.18,0,0,0-6.84-1.29h-7.85v35.18Z" transform="translate(-9.94 -17.83)"/><path class="cls-2" d="M315.82,524.08v-9.15h9.95v9.15Zm9.95,6.25v40.42h-9.95V530.33Z" transform="translate(-9.94 -17.83)"/><path class="cls-2" d="M367.86,573.72a14.38,14.38,0,0,1-2.55,5.83,15.76,15.76,0,0,1-5.69,4.58,22.36,22.36,0,0,1-9.95,1.87,21.17,21.17,0,0,1-5.43-.74,16.48,16.48,0,0,1-5.05-2.31,12.92,12.92,0,0,1-3.78-4,12.66,12.66,0,0,1-1.72-5.9h9.89a6.3,6.3,0,0,0,2.73,4.34,9,9,0,0,0,4.69,1.21c2.81,0,4.85-.94,6.14-2.81a12,12,0,0,0,1.86-7.12v-5.32h-.15a10.34,10.34,0,0,1-4.59,4.74,13.65,13.65,0,0,1-6.27,1.52,14.43,14.43,0,0,1-7-1.6,13.72,13.72,0,0,1-4.83-4.38,19.37,19.37,0,0,1-2.78-6.49,34.36,34.36,0,0,1-.87-7.86,27.78,27.78,0,0,1,1-7.54,20,20,0,0,1,3-6.41,14.71,14.71,0,0,1,4.87-4.42,13.4,13.4,0,0,1,6.69-1.64,12.77,12.77,0,0,1,6.27,1.48,11.45,11.45,0,0,1,4.52,5H359v-5.4h9.46v37.84A29.85,29.85,0,0,1,367.86,573.72Zm-13.63-13.44a8.15,8.15,0,0,0,2.66-2.5,11.85,11.85,0,0,0,1.58-3.56A16.36,16.36,0,0,0,359,550a26.51,26.51,0,0,0-.42-4.73,12.52,12.52,0,0,0-1.41-3.94,7.66,7.66,0,0,0-2.59-2.74,7.47,7.47,0,0,0-4.07-1,6.64,6.64,0,0,0-3.6.94,8.07,8.07,0,0,0-2.53,2.54,11.18,11.18,0,0,0-1.47,3.68,20.31,20.31,0,0,0-.45,4.33,24.23,24.23,0,0,0,.38,4.34,12.7,12.7,0,0,0,1.33,3.88,8.33,8.33,0,0,0,2.49,2.81,6.48,6.48,0,0,0,3.85,1.09A7.31,7.31,0,0,0,354.23,560.28Z" transform="translate(-9.94 -17.83)"/><path class="cls-2" d="M376.73,524.08v-9.15h9.95v9.15Zm9.95,6.25v40.42h-9.95V530.33Z" transform="translate(-9.94 -17.83)"/><path class="cls-2" d="M414.44,530.33v7.43h-7.29v20q0,2.81.84,3.75c.56.62,1.68.94,3.36.94.57,0,1.1,0,1.62-.08a11.27,11.27,0,0,0,1.47-.24v8.6a20.47,20.47,0,0,1-2.8.31c-1,.05-2,.08-3,.08a25.57,25.57,0,0,1-4.38-.35,9.59,9.59,0,0,1-3.65-1.37,6.86,6.86,0,0,1-2.48-2.89,11.29,11.29,0,0,1-.92-4.93V537.76h-6v-7.43h6V518.21h10v12.12Z" transform="translate(-9.94 -17.83)"/><path class="cls-2" d="M418.78,542.76a14,14,0,0,1,1.75-6.49,12.68,12.68,0,0,1,3.93-4.14,15.8,15.8,0,0,1,5.36-2.23,27.62,27.62,0,0,1,6-.66,36,36,0,0,1,5.54.43,15.3,15.3,0,0,1,5.11,1.68,10.29,10.29,0,0,1,3.79,3.48,10.54,10.54,0,0,1,1.47,5.9v21A48.76,48.76,0,0,0,452,567a10.22,10.22,0,0,0,1,3.75h-10.1a17.12,17.12,0,0,1-.45-1.91,18.84,18.84,0,0,1-.25-2,12.71,12.71,0,0,1-5.61,3.83,20,20,0,0,1-6.58,1.1,15.69,15.69,0,0,1-4.84-.71,10.65,10.65,0,0,1-3.93-2.18,10.32,10.32,0,0,1-2.63-3.75,14.25,14.25,0,0,1-.94-5.4,12.82,12.82,0,0,1,1.09-5.67,9.87,9.87,0,0,1,2.8-3.56,11.94,11.94,0,0,1,3.93-2,40.34,40.34,0,0,1,4.44-1.06c1.5-.25,3-.47,4.42-.62a24.66,24.66,0,0,0,3.85-.7,6.59,6.59,0,0,0,2.67-1.37,3.21,3.21,0,0,0,.91-2.63,6.5,6.5,0,0,0-.53-2.85,4.18,4.18,0,0,0-1.4-1.64,5.13,5.13,0,0,0-2-.78,15,15,0,0,0-2.49-.19,7,7,0,0,0-4.63,1.4q-1.68,1.41-2,4.69Zm23,8.21a4.28,4.28,0,0,1-1.58,1,14.23,14.23,0,0,1-2,.59q-1.08.23-2.28.39c-.79.1-1.59.23-2.38.39a16.84,16.84,0,0,0-2.21.62A6.21,6.21,0,0,0,429.4,555a4.86,4.86,0,0,0-1.3,1.68,6.06,6.06,0,0,0-.49,2.58,5.83,5.83,0,0,0,.49,2.5,4.24,4.24,0,0,0,1.33,1.61,5.26,5.26,0,0,0,2,.81,10.9,10.9,0,0,0,2.31.24,8,8,0,0,0,4.55-1.1,6.89,6.89,0,0,0,2.39-2.61,9,9,0,0,0,.94-3.09,23,23,0,0,0,.18-2.5Z" transform="translate(-9.94 -17.83)"/><path class="cls-2" d="M469.66,514.93v55.82h-10V514.93Z" transform="translate(-9.94 -17.83)"/><path class="cls-2" d="M530.15,529.82a11.85,11.85,0,0,0-2.45-3.08,11.06,11.06,0,0,0-3.33-2.08,10.51,10.51,0,0,0-3.89-.74,11.7,11.7,0,0,0-6.3,1.6,12.47,12.47,0,0,0-4.21,4.3,20,20,0,0,0-2.35,6.14,34,34,0,0,0-.74,7.12,31.64,31.64,0,0,0,.74,6.84,19.5,19.5,0,0,0,2.35,6,12.53,12.53,0,0,0,4.21,4.26,11.7,11.7,0,0,0,6.3,1.6,9.66,9.66,0,0,0,7.88-3.44,16.77,16.77,0,0,0,3.47-9.07h10.66a31.25,31.25,0,0,1-2.17,9.46,22.71,22.71,0,0,1-4.63,7.19,19.44,19.44,0,0,1-6.73,4.54,22.23,22.23,0,0,1-8.48,1.57,23.32,23.32,0,0,1-10.34-2.24,22.21,22.21,0,0,1-7.74-6.13,28.08,28.08,0,0,1-4.84-9.19,37.3,37.3,0,0,1-1.68-11.37,38.67,38.67,0,0,1,1.68-11.62,29,29,0,0,1,4.84-9.34,22.45,22.45,0,0,1,7.74-6.26,24.29,24.29,0,0,1,18.16-.93,20.09,20.09,0,0,1,11.38,10.17,24,24,0,0,1,2.38,8.59H531.41A10.56,10.56,0,0,0,530.15,529.82Z" transform="translate(-9.94 -17.83)"/><path class="cls-2" d="M549.22,524.08v-9.15h9.95v9.15Zm9.95,6.25v40.42h-9.95V530.33Z" transform="translate(-9.94 -17.83)"/><path class="cls-2" d="M586.92,530.33v7.43h-7.28v20c0,1.87.27,3.12.84,3.75s1.67.94,3.35.94c.57,0,1.1,0,1.62-.08a11,11,0,0,0,1.47-.24v8.6a20.29,20.29,0,0,1-2.8.31c-1,.05-2,.08-3,.08a25.37,25.37,0,0,1-4.37-.35,9.46,9.46,0,0,1-3.65-1.37,6.81,6.81,0,0,1-2.49-2.89,11.3,11.3,0,0,1-.91-4.93V537.76h-6v-7.43h6V518.21h10v12.12Z" transform="translate(-9.94 -17.83)"/><path class="cls-2" d="M592,524.08v-9.15h9.95v9.15Zm9.95,6.25v40.42H592V530.33Z" transform="translate(-9.94 -17.83)"/><path class="cls-2" d="M626.38,538.7H608.93v-8.37h30.55v8.37l-18.85,23.69h20.19v8.36h-33.3v-8.36Z" transform="translate(-9.94 -17.83)"/><path class="cls-2" d="M656.8,561.06a8.37,8.37,0,0,0,6.45,2.42,8.24,8.24,0,0,0,5.19-1.68,7,7,0,0,0,2.66-3.55h8.76q-2.1,7.26-6.45,10.39a17.46,17.46,0,0,1-10.51,3.13,18.75,18.75,0,0,1-7.71-1.53,15.84,15.84,0,0,1-5.82-4.34,20,20,0,0,1-3.68-6.72,27.27,27.27,0,0,1-1.29-8.6,26,26,0,0,1,1.33-8.45,20.2,20.2,0,0,1,3.78-6.75,17.93,17.93,0,0,1,5.86-4.5,17.11,17.11,0,0,1,7.53-1.64,15.77,15.77,0,0,1,8.06,2,16.73,16.73,0,0,1,5.65,5.36,23.38,23.38,0,0,1,3.18,7.65,31.49,31.49,0,0,1,.7,9H654.35C654.49,556.83,655.3,559.44,656.8,561.06Zm11.25-21.27a6.59,6.59,0,0,0-5.43-2.19,7.49,7.49,0,0,0-6.48,3.13,8.39,8.39,0,0,0-1.34,2.82,14.78,14.78,0,0,0-.45,2.66h16.19A13.55,13.55,0,0,0,668.05,539.79Z" transform="translate(-9.94 -17.83)"/><path class="cls-2" d="M695.84,530.33V536h.21a12.11,12.11,0,0,1,4.91-5.12,13,13,0,0,1,6.17-1.6,15.33,15.33,0,0,1,6.55,1.21,9.88,9.88,0,0,1,4,3.36,13.9,13.9,0,0,1,2.07,5.24,36.86,36.86,0,0,1,.59,6.84v24.86h-10V547.92q0-5-1.41-7.46c-.93-1.65-2.58-2.47-5-2.47q-4.06,0-5.88,2.7t-1.83,8.87v21.19h-10V530.33Z" transform="translate(-9.94 -17.83)"/></svg>